<svg width="161" height="29" viewBox="0 0 161 29" fill="none" xmlns="http://www.w3.org/2000/svg">
<rect x="0.857143" y="2.87912" width="22.2857" height="22.2857" rx="2.57143" stroke="#385159" stroke-width="1.71429"/>
<path d="M16.0514 7.56482L17.1657 9.45053C15.2286 10.3591 13.8057 11.6277 12.9143 13.2734C12.04 14.902 11.5772 17.062 11.5429 19.7362H9.31431C9.05716 17.4905 7.85716 15.8277 5.54288 15.2105L6.33145 13.1191C7.22288 13.3934 8.01145 13.8734 8.69716 14.5762C9.40002 15.2791 9.86288 16.0677 10.1029 16.9591C10.4972 12.7934 12.5029 9.55339 16.0514 7.56482Z" fill="#385159"/>
<path d="M42.6193 6.47652V21.022H40.858V8.32311H40.7727L37.2216 10.6811V8.89129L40.858 6.47652H42.6193ZM51.6832 21.022V6.47652H53.3594V11.8458H53.5014C53.6245 11.6564 53.795 11.415 54.0128 11.1214C54.2353 10.8231 54.5526 10.558 54.9645 10.326C55.3812 10.0892 55.9446 9.97084 56.6548 9.97084C57.5734 9.97084 58.383 10.2005 59.0838 10.6598C59.7846 11.119 60.3314 11.7701 60.7244 12.6129C61.1174 13.4557 61.3139 14.45 61.3139 15.5958C61.3139 16.7511 61.1174 17.7526 60.7244 18.6001C60.3314 19.4429 59.7869 20.0963 59.0909 20.5603C58.3949 21.0196 57.5923 21.2492 56.6832 21.2492C55.9825 21.2492 55.4214 21.1332 55 20.9012C54.5786 20.6645 54.2543 20.397 54.027 20.0987C53.7997 19.7956 53.6245 19.5447 53.5014 19.3458H53.3026V21.022H51.6832ZM53.331 15.5674C53.331 16.3913 53.4517 17.1181 53.6932 17.7478C53.9347 18.3728 54.2874 18.8629 54.7514 19.218C55.2154 19.5684 55.7836 19.7436 56.456 19.7436C57.1567 19.7436 57.7415 19.5589 58.2102 19.1896C58.6837 18.8155 59.0388 18.3136 59.2756 17.6839C59.517 17.0494 59.6378 16.3439 59.6378 15.5674C59.6378 14.8004 59.5194 14.1091 59.2827 13.4936C59.0507 12.8733 58.6979 12.3832 58.2244 12.0234C57.7557 11.6588 57.1662 11.4765 56.456 11.4765C55.7741 11.4765 55.2012 11.6493 54.7372 11.995C54.2732 12.3359 53.9228 12.8141 53.6861 13.4296C53.4493 14.0404 53.331 14.753 53.331 15.5674ZM67.8097 21.2492C66.8248 21.2492 65.9607 21.0149 65.2173 20.5461C64.4787 20.0774 63.901 19.4216 63.4844 18.5788C63.0724 17.736 62.8665 16.7511 62.8665 15.6242C62.8665 14.4879 63.0724 13.4959 63.4844 12.6484C63.901 11.8009 64.4787 11.1427 65.2173 10.674C65.9607 10.2052 66.8248 9.97084 67.8097 9.97084C68.7945 9.97084 69.6563 10.2052 70.3949 10.674C71.1383 11.1427 71.7159 11.8009 72.1278 12.6484C72.5445 13.4959 72.7528 14.4879 72.7528 15.6242C72.7528 16.7511 72.5445 17.736 72.1278 18.5788C71.7159 19.4216 71.1383 20.0774 70.3949 20.5461C69.6563 21.0149 68.7945 21.2492 67.8097 21.2492ZM67.8097 19.7436C68.5578 19.7436 69.1733 19.5518 69.6562 19.1683C70.1392 18.7848 70.4967 18.2805 70.7287 17.6555C70.9607 17.0305 71.0767 16.3534 71.0767 15.6242C71.0767 14.8951 70.9607 14.2156 70.7287 13.5859C70.4967 12.9562 70.1392 12.4472 69.6562 12.0589C69.1733 11.6706 68.5578 11.4765 67.8097 11.4765C67.0616 11.4765 66.446 11.6706 65.9631 12.0589C65.4801 12.4472 65.1226 12.9562 64.8906 13.5859C64.6586 14.2156 64.5426 14.8951 64.5426 15.6242C64.5426 16.3534 64.6586 17.0305 64.8906 17.6555C65.1226 18.2805 65.4801 18.7848 65.9631 19.1683C66.446 19.5518 67.0616 19.7436 67.8097 19.7436ZM79.2433 21.2492C78.2584 21.2492 77.3943 21.0149 76.6509 20.5461C75.9123 20.0774 75.3346 19.4216 74.918 18.5788C74.506 17.736 74.3001 16.7511 74.3001 15.6242C74.3001 14.4879 74.506 13.4959 74.918 12.6484C75.3346 11.8009 75.9123 11.1427 76.6509 10.674C77.3943 10.2052 78.2584 9.97084 79.2433 9.97084C80.2281 9.97084 81.0898 10.2052 81.8285 10.674C82.5719 11.1427 83.1495 11.8009 83.5614 12.6484C83.9781 13.4959 84.1864 14.4879 84.1864 15.6242C84.1864 16.7511 83.9781 17.736 83.5614 18.5788C83.1495 19.4216 82.5719 20.0774 81.8285 20.5461C81.0898 21.0149 80.2281 21.2492 79.2433 21.2492ZM79.2433 19.7436C79.9914 19.7436 80.6069 19.5518 81.0898 19.1683C81.5728 18.7848 81.9303 18.2805 82.1623 17.6555C82.3943 17.0305 82.5103 16.3534 82.5103 15.6242C82.5103 14.8951 82.3943 14.2156 82.1623 13.5859C81.9303 12.9562 81.5728 12.4472 81.0898 12.0589C80.6069 11.6706 79.9914 11.4765 79.2433 11.4765C78.4951 11.4765 77.8796 11.6706 77.3967 12.0589C76.9137 12.4472 76.5562 12.9562 76.3242 13.5859C76.0922 14.2156 75.9762 14.8951 75.9762 15.6242C75.9762 16.3534 76.0922 17.0305 76.3242 17.6555C76.5562 18.2805 76.9137 18.7848 77.3967 19.1683C77.8796 19.5518 78.4951 19.7436 79.2433 19.7436ZM87.8075 17.0447L87.7791 14.9708H88.12L92.8928 10.1129H94.9666L89.8814 15.2549H89.7393L87.8075 17.0447ZM86.245 21.022V6.47652H87.9212V21.022H86.245ZM93.1768 21.022L88.9155 15.6242L90.1087 14.4595L95.3075 21.022H93.1768ZM101.766 5.7947L97.0785 23.2095H95.5444L100.232 5.7947H101.766ZM103.253 21.022V10.1129H104.872V11.8174H105.014C105.241 11.235 105.608 10.7829 106.115 10.4609C106.622 10.1342 107.23 9.97084 107.94 9.97084C108.66 9.97084 109.259 10.1342 109.737 10.4609C110.22 10.7829 110.597 11.235 110.866 11.8174H110.98C111.259 11.254 111.679 10.8065 112.237 10.4751C112.796 10.1389 113.466 9.97084 114.247 9.97084C115.223 9.97084 116.02 10.2762 116.641 10.887C117.261 11.4931 117.571 12.4377 117.571 13.7208V21.022H115.895V13.7208C115.895 12.9159 115.675 12.3406 115.234 11.995C114.794 11.6493 114.276 11.4765 113.679 11.4765C112.912 11.4765 112.318 11.7085 111.896 12.1725C111.475 12.6318 111.264 13.2142 111.264 13.9197V21.022H109.56V13.5504C109.56 12.9301 109.358 12.4306 108.956 12.0518C108.554 11.6683 108.035 11.4765 107.401 11.4765C106.965 11.4765 106.558 11.5925 106.179 11.8245C105.805 12.0565 105.502 12.3785 105.27 12.7904C105.043 13.1976 104.929 13.6688 104.929 14.2038V21.022H103.253ZM124.567 21.2492C123.583 21.2492 122.719 21.0149 121.975 20.5461C121.237 20.0774 120.659 19.4216 120.242 18.5788C119.83 17.736 119.624 16.7511 119.624 15.6242C119.624 14.4879 119.83 13.4959 120.242 12.6484C120.659 11.8009 121.237 11.1427 121.975 10.674C122.719 10.2052 123.583 9.97084 124.567 9.97084C125.552 9.97084 126.414 10.2052 127.153 10.674C127.896 11.1427 128.474 11.8009 128.886 12.6484C129.302 13.4959 129.511 14.4879 129.511 15.6242C129.511 16.7511 129.302 17.736 128.886 18.5788C128.474 19.4216 127.896 20.0774 127.153 20.5461C126.414 21.0149 125.552 21.2492 124.567 21.2492ZM124.567 19.7436C125.316 19.7436 125.931 19.5518 126.414 19.1683C126.897 18.7848 127.254 18.2805 127.487 17.6555C127.719 17.0305 127.835 16.3534 127.835 15.6242C127.835 14.8951 127.719 14.2156 127.487 13.5859C127.254 12.9562 126.897 12.4472 126.414 12.0589C125.931 11.6706 125.316 11.4765 124.567 11.4765C123.819 11.4765 123.204 11.6706 122.721 12.0589C122.238 12.4472 121.88 12.9562 121.648 13.5859C121.416 14.2156 121.3 14.8951 121.3 15.6242C121.3 16.3534 121.416 17.0305 121.648 17.6555C121.88 18.2805 122.238 18.7848 122.721 19.1683C123.204 19.5518 123.819 19.7436 124.567 19.7436ZM133.245 14.4595V21.022H131.569V10.1129H133.189V11.8174H133.331C133.586 11.2634 133.975 10.8184 134.495 10.4822C135.016 10.1413 135.689 9.97084 136.512 9.97084C137.251 9.97084 137.897 10.1224 138.451 10.4254C139.005 10.7237 139.436 11.1782 139.744 11.789C140.052 12.3951 140.206 13.1621 140.206 14.0902V21.022H138.529V14.2038C138.529 13.3468 138.307 12.6792 137.862 12.2009C137.417 11.718 136.806 11.4765 136.029 11.4765C135.494 11.4765 135.016 11.5925 134.595 11.8245C134.178 12.0565 133.849 12.3951 133.608 12.8402C133.366 13.2852 133.245 13.825 133.245 14.4595ZM147.513 10.1129V11.5333H141.859V10.1129H147.513ZM143.507 7.49925H145.183V17.897C145.183 18.3705 145.252 18.7256 145.389 18.9623C145.531 19.1943 145.711 19.3506 145.929 19.4311C146.152 19.5068 146.386 19.5447 146.632 19.5447C146.817 19.5447 146.968 19.5352 147.087 19.5163C147.205 19.4926 147.3 19.4737 147.371 19.4595L147.712 20.9652C147.598 21.0078 147.439 21.0504 147.236 21.093C147.032 21.1403 146.774 21.164 146.462 21.164C145.988 21.164 145.524 21.0622 145.07 20.8586C144.62 20.655 144.246 20.3449 143.947 19.9282C143.654 19.5116 143.507 18.986 143.507 18.3515V7.49925ZM151.445 14.4595V21.022H149.768V6.47652H151.445V11.8174H151.587C151.842 11.254 152.226 10.8065 152.737 10.4751C153.253 10.1389 153.94 9.97084 154.797 9.97084C155.54 9.97084 156.191 10.12 156.75 10.4183C157.309 10.7118 157.742 11.164 158.05 11.7748C158.362 12.3809 158.518 13.1527 158.518 14.0902V21.022H156.842V14.2038C156.842 13.3373 156.617 12.6673 156.168 12.1938C155.723 11.7156 155.105 11.4765 154.314 11.4765C153.765 11.4765 153.272 11.5925 152.837 11.8245C152.406 12.0565 152.065 12.3951 151.814 12.8402C151.568 13.2852 151.445 13.825 151.445 14.4595Z" fill="#385159"/>
</svg>
