<svg width="180" height="29" viewBox="0 0 180 29" fill="none" xmlns="http://www.w3.org/2000/svg">
<rect x="1" y="3.02197" width="22" height="22" rx="3" stroke="#062630" stroke-width="2"/>
<path d="M15.948 8.16197L16.988 9.92197C15.18 10.77 13.852 11.954 13.02 13.49C12.204 15.01 11.772 17.026 11.74 19.522H9.66C9.42 17.426 8.3 15.874 6.14 15.298L6.876 13.346C7.708 13.602 8.444 14.05 9.084 14.706C9.74 15.362 10.172 16.098 10.396 16.93C10.764 13.042 12.636 10.018 15.948 8.16197Z" fill="#062630"/>
<path d="M38.358 6.47652L42.6761 18.7208H42.8466L47.1648 6.47652H49.0114L43.6705 21.022H41.8523L36.5114 6.47652H38.358ZM50.6497 21.022V10.1129H52.3259V21.022H50.6497ZM51.502 8.2947C51.1753 8.2947 50.8936 8.18343 50.6568 7.96089C50.4248 7.73836 50.3088 7.47084 50.3088 7.15834C50.3088 6.84584 50.4248 6.57832 50.6568 6.35578C50.8936 6.13324 51.1753 6.02197 51.502 6.02197C51.8287 6.02197 52.108 6.13324 52.3401 6.35578C52.5768 6.57832 52.6952 6.84584 52.6952 7.15834C52.6952 7.47084 52.5768 7.73836 52.3401 7.96089C52.108 8.18343 51.8287 8.2947 51.502 8.2947ZM54.9958 21.022V10.1129H56.6151V11.7606H56.7288C56.9276 11.2208 57.2875 10.7829 57.8083 10.4467C58.3291 10.1105 58.9163 9.94243 59.5697 9.94243C59.6928 9.94243 59.8467 9.94479 60.0313 9.94953C60.216 9.95426 60.3557 9.96137 60.4504 9.97084V11.6754C60.3935 11.6612 60.2633 11.6399 60.0597 11.6115C59.8609 11.5783 59.6502 11.5617 59.4276 11.5617C58.8973 11.5617 58.4238 11.673 58.0072 11.8956C57.5952 12.1134 57.2685 12.4164 57.0271 12.8046C56.7903 13.1882 56.6719 13.6261 56.6719 14.1186V21.022H54.9958ZM67.4651 10.1129V11.5333H61.8117V10.1129H67.4651ZM63.4594 7.49925H65.1356V17.897C65.1356 18.3705 65.2042 18.7256 65.3415 18.9623C65.4836 19.1943 65.6635 19.3506 65.8813 19.4311C66.1039 19.5068 66.3382 19.5447 66.5844 19.5447C66.7691 19.5447 66.9206 19.5352 67.039 19.5163C67.1574 19.4926 67.2521 19.4737 67.3231 19.4595L67.664 20.9652C67.5504 21.0078 67.3917 21.0504 67.1881 21.093C66.9845 21.1403 66.7265 21.164 66.414 21.164C65.9405 21.164 65.4765 21.0622 65.0219 20.8586C64.5721 20.655 64.1981 20.3449 63.8998 19.9282C63.6062 19.5116 63.4594 18.986 63.4594 18.3515V7.49925ZM76.4614 16.5617V10.1129H78.1376V21.022H76.4614V19.1754H76.3478C76.0921 19.7294 75.6944 20.2005 75.1546 20.5887C74.6148 20.9723 73.933 21.164 73.1092 21.164C72.4273 21.164 71.8213 21.0149 71.291 20.7166C70.7607 20.4135 70.344 19.959 70.041 19.3529C69.738 18.7421 69.5864 17.9727 69.5864 17.0447V10.1129H71.2626V16.9311C71.2626 17.7265 71.4851 18.361 71.9302 18.8345C72.38 19.308 72.9529 19.5447 73.6489 19.5447C74.0656 19.5447 74.4894 19.4382 74.9202 19.2251C75.3558 19.012 75.7204 18.6853 76.014 18.245C76.3123 17.8046 76.4614 17.2436 76.4614 16.5617ZM84.0178 21.2777C83.3265 21.2777 82.6991 21.1474 82.1357 20.887C81.5722 20.6219 81.1248 20.2407 80.7933 19.7436C80.4619 19.2417 80.2962 18.6356 80.2962 17.9254C80.2962 17.3004 80.4193 16.7938 80.6655 16.4055C80.9117 16.0125 81.2408 15.7047 81.6527 15.4822C82.0646 15.2597 82.5192 15.0939 83.0163 14.985C83.5182 14.8714 84.0225 14.7814 84.5291 14.7152C85.192 14.6299 85.7294 14.566 86.1413 14.5234C86.558 14.476 86.861 14.3979 87.0504 14.289C87.2446 14.1801 87.3416 13.9907 87.3416 13.7208V13.664C87.3416 12.9633 87.1499 12.4188 86.7663 12.0305C86.3875 11.6422 85.8123 11.4481 85.0405 11.4481C84.2403 11.4481 83.6129 11.6233 83.1584 11.9737C82.7038 12.3241 82.3842 12.6981 82.1996 13.0958L80.6087 12.5277C80.8928 11.8648 81.2715 11.3487 81.745 10.9794C82.2232 10.6053 82.7441 10.3449 83.3075 10.1981C83.8757 10.0466 84.4344 9.97084 84.9837 9.97084C85.334 9.97084 85.7365 10.0134 86.1911 10.0987C86.6503 10.1792 87.093 10.3473 87.5192 10.6029C87.95 10.8586 88.3075 11.2445 88.5916 11.7606C88.8757 12.2767 89.0178 12.968 89.0178 13.8345V21.022H87.3416V19.5447H87.2564C87.1428 19.7814 86.9534 20.0348 86.6882 20.3046C86.4231 20.5745 86.0703 20.8042 85.63 20.9936C85.1896 21.183 84.6522 21.2777 84.0178 21.2777ZM84.2734 19.772C84.9363 19.772 85.495 19.6418 85.9496 19.3813C86.4089 19.1209 86.7545 18.7848 86.9865 18.3728C87.2232 17.9609 87.3416 17.5277 87.3416 17.0731V15.539C87.2706 15.6242 87.1143 15.7024 86.8729 15.7734C86.6361 15.8397 86.3615 15.8989 86.049 15.9509C85.7412 15.9983 85.4406 16.0409 85.147 16.0788C84.8582 16.1119 84.6238 16.1403 84.4439 16.164C84.0083 16.2208 83.6011 16.3132 83.2223 16.441C82.8482 16.5641 82.5452 16.7511 82.3132 17.0021C82.0859 17.2483 81.9723 17.5845 81.9723 18.0106C81.9723 18.593 82.1877 19.0333 82.6186 19.3316C83.0542 19.6252 83.6058 19.772 84.2734 19.772ZM93.3532 6.47652V21.022H91.6771V6.47652H93.3532ZM101.248 21.022V10.1129H102.867V11.8174H103.01C103.237 11.235 103.604 10.7829 104.11 10.4609C104.617 10.1342 105.225 9.97084 105.936 9.97084C106.655 9.97084 107.254 10.1342 107.733 10.4609C108.215 10.7829 108.592 11.235 108.862 11.8174H108.975C109.255 11.254 109.674 10.8065 110.233 10.4751C110.791 10.1389 111.461 9.97084 112.242 9.97084C113.218 9.97084 114.016 10.2762 114.636 10.887C115.256 11.4931 115.566 12.4377 115.566 13.7208V21.022H113.89V13.7208C113.89 12.9159 113.67 12.3406 113.23 11.995C112.789 11.6493 112.271 11.4765 111.674 11.4765C110.907 11.4765 110.313 11.7085 109.892 12.1725C109.47 12.6318 109.26 13.2142 109.26 13.9197V21.022H107.555V13.5504C107.555 12.9301 107.354 12.4306 106.951 12.0518C106.549 11.6683 106.03 11.4765 105.396 11.4765C104.96 11.4765 104.553 11.5925 104.174 11.8245C103.8 12.0565 103.497 12.3785 103.265 12.7904C103.038 13.1976 102.924 13.6688 102.924 14.2038V21.022H101.248ZM122.805 21.2492C121.754 21.2492 120.847 21.0172 120.085 20.5532C119.327 20.0845 118.742 19.4311 118.33 18.593C117.923 17.7502 117.72 16.7701 117.72 15.6527C117.72 14.5352 117.923 13.5504 118.33 12.6981C118.742 11.8411 119.315 11.1735 120.049 10.6953C120.788 10.2123 121.65 9.97084 122.634 9.97084C123.203 9.97084 123.764 10.0655 124.318 10.2549C124.872 10.4443 125.376 10.7521 125.83 11.1782C126.285 11.5996 126.647 12.1583 126.917 12.8544C127.187 13.5504 127.322 14.4074 127.322 15.4254V16.1356H118.913V14.6867H125.617C125.617 14.0712 125.494 13.522 125.248 13.039C125.007 12.5561 124.661 12.1749 124.211 11.8956C123.766 11.6162 123.24 11.4765 122.634 11.4765C121.967 11.4765 121.389 11.6422 120.901 11.9737C120.418 12.3004 120.047 12.7265 119.786 13.2521C119.526 13.7777 119.396 14.3411 119.396 14.9424V15.9083C119.396 16.7322 119.538 17.4306 119.822 18.0035C120.111 18.5717 120.511 19.0049 121.022 19.3032C121.534 19.5968 122.128 19.7436 122.805 19.7436C123.245 19.7436 123.643 19.682 123.998 19.5589C124.358 19.4311 124.668 19.2417 124.928 18.9907C125.189 18.735 125.39 18.4178 125.532 18.039L127.151 18.4936C126.981 19.0428 126.695 19.5258 126.292 19.9424C125.89 20.3544 125.392 20.6763 124.801 20.9083C124.209 21.1356 123.543 21.2492 122.805 21.2492ZM134.045 21.2492C132.994 21.2492 132.088 21.0172 131.325 20.5532C130.568 20.0845 129.983 19.4311 129.571 18.593C129.164 17.7502 128.96 16.7701 128.96 15.6527C128.96 14.5352 129.164 13.5504 129.571 12.6981C129.983 11.8411 130.556 11.1735 131.29 10.6953C132.028 10.2123 132.89 9.97084 133.875 9.97084C134.443 9.97084 135.004 10.0655 135.558 10.2549C136.112 10.4443 136.616 10.7521 137.071 11.1782C137.526 11.5996 137.888 12.1583 138.158 12.8544C138.428 13.5504 138.562 14.4074 138.562 15.4254V16.1356H130.153V14.6867H136.858C136.858 14.0712 136.735 13.522 136.489 13.039C136.247 12.5561 135.902 12.1749 135.452 11.8956C135.007 11.6162 134.481 11.4765 133.875 11.4765C133.207 11.4765 132.63 11.6422 132.142 11.9737C131.659 12.3004 131.287 12.7265 131.027 13.2521C130.767 13.7777 130.636 14.3411 130.636 14.9424V15.9083C130.636 16.7322 130.778 17.4306 131.062 18.0035C131.351 18.5717 131.751 19.0049 132.263 19.3032C132.774 19.5968 133.368 19.7436 134.045 19.7436C134.486 19.7436 134.884 19.682 135.239 19.5589C135.598 19.4311 135.909 19.2417 136.169 18.9907C136.429 18.735 136.631 18.4178 136.773 18.039L138.392 18.4936C138.222 19.0428 137.935 19.5258 137.533 19.9424C137.13 20.3544 136.633 20.6763 136.041 20.9083C135.449 21.1356 134.784 21.2492 134.045 21.2492ZM145.457 10.1129V11.5333H139.803V10.1129H145.457ZM141.451 7.49925H143.127V17.897C143.127 18.3705 143.196 18.7256 143.333 18.9623C143.475 19.1943 143.655 19.3506 143.873 19.4311C144.095 19.5068 144.33 19.5447 144.576 19.5447C144.761 19.5447 144.912 19.5352 145.03 19.5163C145.149 19.4926 145.243 19.4737 145.314 19.4595L145.655 20.9652C145.542 21.0078 145.383 21.0504 145.18 21.093C144.976 21.1403 144.718 21.164 144.405 21.164C143.932 21.164 143.468 21.0622 143.013 20.8586C142.564 20.655 142.189 20.3449 141.891 19.9282C141.598 19.5116 141.451 18.986 141.451 18.3515V7.49925ZM154.453 16.5617V10.1129H156.129V21.022H154.453V19.1754H154.339C154.084 19.7294 153.686 20.2005 153.146 20.5887C152.606 20.9723 151.924 21.164 151.101 21.164C150.419 21.164 149.813 21.0149 149.282 20.7166C148.752 20.4135 148.335 19.959 148.032 19.3529C147.729 18.7421 147.578 17.9727 147.578 17.0447V10.1129H149.254V16.9311C149.254 17.7265 149.477 18.361 149.922 18.8345C150.371 19.308 150.944 19.5447 151.64 19.5447C152.057 19.5447 152.481 19.4382 152.912 19.2251C153.347 19.012 153.712 18.6853 154.005 18.245C154.304 17.8046 154.453 17.2436 154.453 16.5617ZM158.799 25.1129V10.1129H160.418V11.8458H160.617C160.74 11.6564 160.911 11.415 161.128 11.1214C161.351 10.8231 161.668 10.558 162.08 10.326C162.497 10.0892 163.06 9.97084 163.771 9.97084C164.689 9.97084 165.499 10.2005 166.2 10.6598C166.9 11.119 167.447 11.7701 167.84 12.6129C168.233 13.4557 168.43 14.45 168.43 15.5958C168.43 16.7511 168.233 17.7526 167.84 18.6001C167.447 19.4429 166.903 20.0963 166.207 20.5603C165.511 21.0196 164.708 21.2492 163.799 21.2492C163.098 21.2492 162.537 21.1332 162.116 20.9012C161.694 20.6645 161.37 20.397 161.143 20.0987C160.915 19.7956 160.74 19.5447 160.617 19.3458H160.475V25.1129H158.799ZM160.447 15.5674C160.447 16.3913 160.567 17.1181 160.809 17.7478C161.05 18.3728 161.403 18.8629 161.867 19.218C162.331 19.5684 162.899 19.7436 163.572 19.7436C164.272 19.7436 164.857 19.5589 165.326 19.1896C165.799 18.8155 166.155 18.3136 166.391 17.6839C166.633 17.0494 166.753 16.3439 166.753 15.5674C166.753 14.8004 166.635 14.1091 166.398 13.4936C166.166 12.8733 165.814 12.3832 165.34 12.0234C164.871 11.6588 164.282 11.4765 163.572 11.4765C162.89 11.4765 162.317 11.6493 161.853 11.995C161.389 12.3359 161.039 12.8141 160.802 13.4296C160.565 14.0404 160.447 14.753 160.447 15.5674ZM178.314 12.5561L176.808 12.9822C176.713 12.7313 176.574 12.4874 176.389 12.2507C176.209 12.0092 175.963 11.8103 175.65 11.6541C175.338 11.4978 174.938 11.4197 174.45 11.4197C173.782 11.4197 173.226 11.5736 172.781 11.8813C172.341 12.1844 172.121 12.5703 172.121 13.039C172.121 13.4557 172.272 13.7848 172.575 14.0262C172.878 14.2677 173.352 14.4689 173.996 14.6299L175.615 15.0277C176.59 15.2644 177.317 15.6266 177.795 16.1143C178.273 16.5973 178.513 17.2199 178.513 17.9822C178.513 18.6072 178.333 19.1659 177.973 19.6583C177.618 20.1508 177.121 20.539 176.481 20.8231C175.842 21.1072 175.099 21.2492 174.251 21.2492C173.139 21.2492 172.218 21.0078 171.488 20.5248C170.759 20.0419 170.298 19.3364 170.103 18.4083L171.694 18.0106C171.846 18.5977 172.132 19.0381 172.554 19.3316C172.98 19.6252 173.536 19.772 174.223 19.772C175.004 19.772 175.624 19.6063 176.084 19.2748C176.548 18.9386 176.78 18.5362 176.78 18.0674C176.78 17.6886 176.647 17.3714 176.382 17.1157C176.117 16.8553 175.71 16.6612 175.16 16.5333L173.342 16.1072C172.343 15.8705 171.609 15.5035 171.14 15.0063C170.676 14.5045 170.444 13.8771 170.444 13.1242C170.444 12.5087 170.617 11.9642 170.963 11.4907C171.313 11.0172 171.789 10.6456 172.39 10.3757C172.996 10.1058 173.683 9.97084 174.45 9.97084C175.53 9.97084 176.377 10.2076 176.993 10.6811C177.613 11.1545 178.053 11.7795 178.314 12.5561Z" fill="#385159"/>
</svg>
