<svg width="184" height="29" viewBox="0 0 184 29" fill="none" xmlns="http://www.w3.org/2000/svg">
<rect x="1" y="3.02197" width="22" height="22" rx="3" stroke="#062630" stroke-width="2"/>
<path d="M15.948 8.16197L16.988 9.92197C15.18 10.77 13.852 11.954 13.02 13.49C12.204 15.01 11.772 17.026 11.74 19.522H9.66C9.42 17.426 8.3 15.874 6.14 15.298L6.876 13.346C7.708 13.602 8.444 14.05 9.084 14.706C9.74 15.362 10.172 16.098 10.396 16.93C10.764 13.042 12.636 10.018 15.948 8.16197Z" fill="#062630"/>
<path d="M37.7614 21.022V6.47652H42.6761C43.8172 6.47652 44.75 6.68248 45.4744 7.09442C46.2036 7.50161 46.7434 8.05322 47.0938 8.74925C47.4441 9.44527 47.6193 10.2218 47.6193 11.0788C47.6193 11.9358 47.4441 12.7147 47.0938 13.4154C46.7481 14.1162 46.2131 14.6749 45.4886 15.0916C44.7642 15.5035 43.8362 15.7095 42.7045 15.7095H39.1818V14.147H42.6477C43.429 14.147 44.0563 14.012 44.5298 13.7421C45.0033 13.4723 45.3466 13.1077 45.5597 12.6484C45.7775 12.1844 45.8864 11.6612 45.8864 11.0788C45.8864 10.4964 45.7775 9.97557 45.5597 9.51629C45.3466 9.05701 45.0009 8.69716 44.5227 8.43675C44.0445 8.17159 43.41 8.03902 42.6193 8.03902H39.5227V21.022H37.7614ZM49.8294 21.022V10.1129H51.4487V11.7606H51.5624C51.7612 11.2208 52.1211 10.7829 52.6419 10.4467C53.1627 10.1105 53.7499 9.94243 54.4033 9.94243C54.5264 9.94243 54.6803 9.94479 54.8649 9.94953C55.0496 9.95426 55.1893 9.96137 55.2839 9.97084V11.6754C55.2271 11.6612 55.0969 11.6399 54.8933 11.6115C54.6945 11.5783 54.4838 11.5617 54.2612 11.5617C53.7309 11.5617 53.2574 11.673 52.8408 11.8956C52.4288 12.1134 52.1021 12.4164 51.8607 12.8046C51.6239 13.1882 51.5055 13.6261 51.5055 14.1186V21.022H49.8294ZM56.8708 21.022V10.1129H58.5469V21.022H56.8708ZM57.7231 8.2947C57.3964 8.2947 57.1147 8.18343 56.8779 7.96089C56.6459 7.73836 56.5299 7.47084 56.5299 7.15834C56.5299 6.84584 56.6459 6.57832 56.8779 6.35578C57.1147 6.13324 57.3964 6.02197 57.7231 6.02197C58.0498 6.02197 58.3291 6.13324 58.5612 6.35578C58.7979 6.57832 58.9163 6.84584 58.9163 7.15834C58.9163 7.47084 58.7979 7.73836 58.5612 7.96089C58.3291 8.18343 58.0498 8.2947 57.7231 8.2947ZM70.1374 10.1129L66.1033 21.022H64.3987L60.3646 10.1129H62.1828L65.1942 18.8061H65.3078L68.3192 10.1129H70.1374ZM74.8279 21.2777C74.1366 21.2777 73.5093 21.1474 72.9458 20.887C72.3824 20.6219 71.9349 20.2407 71.6035 19.7436C71.272 19.2417 71.1063 18.6356 71.1063 17.9254C71.1063 17.3004 71.2294 16.7938 71.4756 16.4055C71.7219 16.0125 72.0509 15.7047 72.4629 15.4822C72.8748 15.2597 73.3293 15.0939 73.8265 14.985C74.3284 14.8714 74.8326 14.7814 75.3393 14.7152C76.0022 14.6299 76.5396 14.566 76.9515 14.5234C77.3682 14.476 77.6712 14.3979 77.8606 14.289C78.0547 14.1801 78.1518 13.9907 78.1518 13.7208V13.664C78.1518 12.9633 77.96 12.4188 77.5765 12.0305C77.1977 11.6422 76.6224 11.4481 75.8506 11.4481C75.0505 11.4481 74.4231 11.6233 73.9685 11.9737C73.514 12.3241 73.1944 12.6981 73.0097 13.0958L71.4188 12.5277C71.7029 11.8648 72.0817 11.3487 72.5552 10.9794C73.0334 10.6053 73.5542 10.3449 74.1177 10.1981C74.6859 10.0466 75.2446 9.97084 75.7938 9.97084C76.1442 9.97084 76.5467 10.0134 77.0012 10.0987C77.4605 10.1792 77.9032 10.3473 78.3293 10.6029C78.7602 10.8586 79.1177 11.2445 79.4018 11.7606C79.6859 12.2767 79.8279 12.968 79.8279 13.8345V21.022H78.1518V19.5447H78.0666C77.9529 19.7814 77.7635 20.0348 77.4984 20.3046C77.2332 20.5745 76.8805 20.8042 76.4401 20.9936C75.9998 21.183 75.4624 21.2777 74.8279 21.2777ZM75.0836 19.772C75.7465 19.772 76.3052 19.6418 76.7597 19.3813C77.219 19.1209 77.5647 18.7848 77.7967 18.3728C78.0334 17.9609 78.1518 17.5277 78.1518 17.0731V15.539C78.0808 15.6242 77.9245 15.7024 77.683 15.7734C77.4463 15.8397 77.1717 15.8989 76.8592 15.9509C76.5514 15.9983 76.2507 16.0409 75.9572 16.0788C75.6683 16.1119 75.434 16.1403 75.2541 16.164C74.8184 16.2208 74.4112 16.3132 74.0325 16.441C73.6584 16.5641 73.3554 16.7511 73.1234 17.0021C72.8961 17.2483 72.7825 17.5845 72.7825 18.0106C72.7825 18.593 72.9979 19.0333 73.4288 19.3316C73.8644 19.6252 74.416 19.772 75.0836 19.772ZM87.2315 10.1129V11.5333H81.5781V10.1129H87.2315ZM83.2259 7.49925H84.902V17.897C84.902 18.3705 84.9706 18.7256 85.108 18.9623C85.25 19.1943 85.4299 19.3506 85.6477 19.4311C85.8703 19.5068 86.1046 19.5447 86.3509 19.5447C86.5355 19.5447 86.687 19.5352 86.8054 19.5163C86.9238 19.4926 87.0185 19.4737 87.0895 19.4595L87.4304 20.9652C87.3168 21.0078 87.1581 21.0504 86.9545 21.093C86.7509 21.1403 86.4929 21.164 86.1804 21.164C85.7069 21.164 85.2429 21.0622 84.7884 20.8586C84.3385 20.655 83.9645 20.3449 83.6662 19.9282C83.3726 19.5116 83.2259 18.986 83.2259 18.3515V7.49925ZM93.8095 21.2492C92.7584 21.2492 91.8517 21.0172 91.0893 20.5532C90.3318 20.0845 89.747 19.4311 89.3351 18.593C88.9279 17.7502 88.7243 16.7701 88.7243 15.6527C88.7243 14.5352 88.9279 13.5504 89.3351 12.6981C89.747 11.8411 90.3199 11.1735 91.0538 10.6953C91.7925 10.2123 92.6542 9.97084 93.6391 9.97084C94.2072 9.97084 94.7683 10.0655 95.3223 10.2549C95.8763 10.4443 96.3805 10.7521 96.8351 11.1782C97.2896 11.5996 97.6518 12.1583 97.9217 12.8544C98.1916 13.5504 98.3266 14.4074 98.3266 15.4254V16.1356H89.9175V14.6867H96.622C96.622 14.0712 96.4989 13.522 96.2527 13.039C96.0112 12.5561 95.6656 12.1749 95.2158 11.8956C94.7707 11.6162 94.2451 11.4765 93.6391 11.4765C92.9714 11.4765 92.3938 11.6422 91.9061 11.9737C91.4232 12.3004 91.0515 12.7265 90.791 13.2521C90.5306 13.7777 90.4004 14.3411 90.4004 14.9424V15.9083C90.4004 16.7322 90.5425 17.4306 90.8266 18.0035C91.1154 18.5717 91.5155 19.0049 92.0268 19.3032C92.5382 19.5968 93.1324 19.7436 93.8095 19.7436C94.2499 19.7436 94.6476 19.682 95.0027 19.5589C95.3625 19.4311 95.6727 19.2417 95.9331 18.9907C96.1935 18.735 96.3947 18.4178 96.5368 18.039L98.1561 18.4936C97.9857 19.0428 97.6992 19.5258 97.2967 19.9424C96.8943 20.3544 96.3971 20.6763 95.8053 20.9083C95.2134 21.1356 94.5482 21.2492 93.8095 21.2492ZM113.429 12.5561L111.923 12.9822C111.828 12.7313 111.688 12.4874 111.504 12.2507C111.324 12.0092 111.078 11.8103 110.765 11.6541C110.453 11.4978 110.053 11.4197 109.565 11.4197C108.897 11.4197 108.341 11.5736 107.896 11.8813C107.456 12.1844 107.235 12.5703 107.235 13.039C107.235 13.4557 107.387 13.7848 107.69 14.0262C107.993 14.2677 108.466 14.4689 109.11 14.6299L110.73 15.0277C111.705 15.2644 112.432 15.6266 112.91 16.1143C113.388 16.5973 113.627 17.2199 113.627 17.9822C113.627 18.6072 113.447 19.1659 113.088 19.6583C112.733 20.1508 112.235 20.539 111.596 20.8231C110.957 21.1072 110.214 21.2492 109.366 21.2492C108.253 21.2492 107.332 21.0078 106.603 20.5248C105.874 20.0419 105.412 19.3364 105.218 18.4083L106.809 18.0106C106.961 18.5977 107.247 19.0381 107.669 19.3316C108.095 19.6252 108.651 19.772 109.338 19.772C110.119 19.772 110.739 19.6063 111.198 19.2748C111.662 18.9386 111.894 18.5362 111.894 18.0674C111.894 17.6886 111.762 17.3714 111.497 17.1157C111.232 16.8553 110.824 16.6612 110.275 16.5333L108.457 16.1072C107.458 15.8705 106.724 15.5035 106.255 15.0063C105.791 14.5045 105.559 13.8771 105.559 13.1242C105.559 12.5087 105.732 11.9642 106.078 11.4907C106.428 11.0172 106.904 10.6456 107.505 10.3757C108.111 10.1058 108.798 9.97084 109.565 9.97084C110.644 9.97084 111.492 10.2076 112.108 10.6811C112.728 11.1545 113.168 11.7795 113.429 12.5561ZM120.324 21.2492C119.273 21.2492 118.367 21.0172 117.604 20.5532C116.847 20.0845 116.262 19.4311 115.85 18.593C115.443 17.7502 115.239 16.7701 115.239 15.6527C115.239 14.5352 115.443 13.5504 115.85 12.6981C116.262 11.8411 116.835 11.1735 117.569 10.6953C118.307 10.2123 119.169 9.97084 120.154 9.97084C120.722 9.97084 121.283 10.0655 121.837 10.2549C122.391 10.4443 122.895 10.7521 123.35 11.1782C123.804 11.5996 124.167 12.1583 124.437 12.8544C124.706 13.5504 124.841 14.4074 124.841 15.4254V16.1356H116.432V14.6867H123.137C123.137 14.0712 123.014 13.522 122.768 13.039C122.526 12.5561 122.18 12.1749 121.731 11.8956C121.286 11.6162 120.76 11.4765 120.154 11.4765C119.486 11.4765 118.909 11.6422 118.421 11.9737C117.938 12.3004 117.566 12.7265 117.306 13.2521C117.045 13.7777 116.915 14.3411 116.915 14.9424V15.9083C116.915 16.7322 117.057 17.4306 117.341 18.0035C117.63 18.5717 118.03 19.0049 118.542 19.3032C119.053 19.5968 119.647 19.7436 120.324 19.7436C120.765 19.7436 121.162 19.682 121.518 19.5589C121.877 19.4311 122.188 19.2417 122.448 18.9907C122.708 18.735 122.91 18.4178 123.052 18.039L124.671 18.4936C124.5 19.0428 124.214 19.5258 123.812 19.9424C123.409 20.3544 122.912 20.6763 122.32 20.9083C121.728 21.1356 121.063 21.2492 120.324 21.2492ZM134.718 12.5561L133.213 12.9822C133.118 12.7313 132.978 12.4874 132.794 12.2507C132.614 12.0092 132.368 11.8103 132.055 11.6541C131.743 11.4978 131.342 11.4197 130.855 11.4197C130.187 11.4197 129.631 11.5736 129.186 11.8813C128.745 12.1844 128.525 12.5703 128.525 13.039C128.525 13.4557 128.677 13.7848 128.98 14.0262C129.283 14.2677 129.756 14.4689 130.4 14.6299L132.02 15.0277C132.995 15.2644 133.722 15.6266 134.2 16.1143C134.678 16.5973 134.917 17.2199 134.917 17.9822C134.917 18.6072 134.737 19.1659 134.377 19.6583C134.022 20.1508 133.525 20.539 132.886 20.8231C132.247 21.1072 131.503 21.2492 130.656 21.2492C129.543 21.2492 128.622 21.0078 127.893 20.5248C127.164 20.0419 126.702 19.3364 126.508 18.4083L128.099 18.0106C128.251 18.5977 128.537 19.0381 128.958 19.3316C129.385 19.6252 129.941 19.772 130.627 19.772C131.409 19.772 132.029 19.6063 132.488 19.2748C132.952 18.9386 133.184 18.5362 133.184 18.0674C133.184 17.6886 133.052 17.3714 132.787 17.1157C132.521 16.8553 132.114 16.6612 131.565 16.5333L129.747 16.1072C128.748 15.8705 128.014 15.5035 127.545 15.0063C127.081 14.5045 126.849 13.8771 126.849 13.1242C126.849 12.5087 127.022 11.9642 127.368 11.4907C127.718 11.0172 128.194 10.6456 128.795 10.3757C129.401 10.1058 130.088 9.97084 130.855 9.97084C131.934 9.97084 132.782 10.2076 133.397 10.6811C134.018 11.1545 134.458 11.7795 134.718 12.5561ZM144.768 12.5561L143.262 12.9822C143.167 12.7313 143.028 12.4874 142.843 12.2507C142.663 12.0092 142.417 11.8103 142.104 11.6541C141.792 11.4978 141.392 11.4197 140.904 11.4197C140.236 11.4197 139.68 11.5736 139.235 11.8813C138.795 12.1844 138.574 12.5703 138.574 13.039C138.574 13.4557 138.726 13.7848 139.029 14.0262C139.332 14.2677 139.805 14.4689 140.449 14.6299L142.069 15.0277C143.044 15.2644 143.771 15.6266 144.249 16.1143C144.727 16.5973 144.966 17.2199 144.966 17.9822C144.966 18.6072 144.787 19.1659 144.427 19.6583C144.072 20.1508 143.574 20.539 142.935 20.8231C142.296 21.1072 141.553 21.2492 140.705 21.2492C139.592 21.2492 138.671 21.0078 137.942 20.5248C137.213 20.0419 136.752 19.3364 136.557 18.4083L138.148 18.0106C138.3 18.5977 138.586 19.0381 139.008 19.3316C139.434 19.6252 139.99 19.772 140.677 19.772C141.458 19.772 142.078 19.6063 142.537 19.2748C143.002 18.9386 143.234 18.5362 143.234 18.0674C143.234 17.6886 143.101 17.3714 142.836 17.1157C142.571 16.8553 142.163 16.6612 141.614 16.5333L139.796 16.1072C138.797 15.8705 138.063 15.5035 137.594 15.0063C137.13 14.5045 136.898 13.8771 136.898 13.1242C136.898 12.5087 137.071 11.9642 137.417 11.4907C137.767 11.0172 138.243 10.6456 138.844 10.3757C139.45 10.1058 140.137 9.97084 140.904 9.97084C141.984 9.97084 142.831 10.2076 143.447 10.6811C144.067 11.1545 144.507 11.7795 144.768 12.5561ZM147.09 21.022V10.1129H148.766V21.022H147.09ZM147.942 8.2947C147.615 8.2947 147.333 8.18343 147.097 7.96089C146.865 7.73836 146.749 7.47084 146.749 7.15834C146.749 6.84584 146.865 6.57832 147.097 6.35578C147.333 6.13324 147.615 6.02197 147.942 6.02197C148.269 6.02197 148.548 6.13324 148.78 6.35578C149.017 6.57832 149.135 6.84584 149.135 7.15834C149.135 7.47084 149.017 7.73836 148.78 7.96089C148.548 8.18343 148.269 8.2947 147.942 8.2947ZM155.867 21.2492C154.883 21.2492 154.019 21.0149 153.275 20.5461C152.537 20.0774 151.959 19.4216 151.542 18.5788C151.13 17.736 150.924 16.7511 150.924 15.6242C150.924 14.4879 151.13 13.4959 151.542 12.6484C151.959 11.8009 152.537 11.1427 153.275 10.674C154.019 10.2052 154.883 9.97084 155.867 9.97084C156.852 9.97084 157.714 10.2052 158.453 10.674C159.196 11.1427 159.774 11.8009 160.186 12.6484C160.602 13.4959 160.811 14.4879 160.811 15.6242C160.811 16.7511 160.602 17.736 160.186 18.5788C159.774 19.4216 159.196 20.0774 158.453 20.5461C157.714 21.0149 156.852 21.2492 155.867 21.2492ZM155.867 19.7436C156.616 19.7436 157.231 19.5518 157.714 19.1683C158.197 18.7848 158.555 18.2805 158.787 17.6555C159.019 17.0305 159.135 16.3534 159.135 15.6242C159.135 14.8951 159.019 14.2156 158.787 13.5859C158.555 12.9562 158.197 12.4472 157.714 12.0589C157.231 11.6706 156.616 11.4765 155.867 11.4765C155.119 11.4765 154.504 11.6706 154.021 12.0589C153.538 12.4472 153.18 12.9562 152.948 13.5859C152.716 14.2156 152.6 14.8951 152.6 15.6242C152.6 16.3534 152.716 17.0305 152.948 17.6555C153.18 18.2805 153.538 18.7848 154.021 19.1683C154.504 19.5518 155.119 19.7436 155.867 19.7436ZM164.645 14.4595V21.022H162.969V10.1129H164.589V11.8174H164.731C164.986 11.2634 165.375 10.8184 165.895 10.4822C166.416 10.1413 167.089 9.97084 167.912 9.97084C168.651 9.97084 169.297 10.1224 169.851 10.4254C170.405 10.7237 170.836 11.1782 171.144 11.789C171.452 12.3951 171.606 13.1621 171.606 14.0902V21.022H169.929V14.2038C169.929 13.3468 169.707 12.6792 169.262 12.2009C168.817 11.718 168.206 11.4765 167.429 11.4765C166.894 11.4765 166.416 11.5925 165.995 11.8245C165.578 12.0565 165.249 12.3951 165.008 12.8402C164.766 13.2852 164.645 13.825 164.645 14.4595ZM181.996 12.5561L180.49 12.9822C180.395 12.7313 180.256 12.4874 180.071 12.2507C179.891 12.0092 179.645 11.8103 179.332 11.6541C179.02 11.4978 178.62 11.4197 178.132 11.4197C177.464 11.4197 176.908 11.5736 176.463 11.8813C176.023 12.1844 175.803 12.5703 175.803 13.039C175.803 13.4557 175.954 13.7848 176.257 14.0262C176.56 14.2677 177.034 14.4689 177.678 14.6299L179.297 15.0277C180.272 15.2644 180.999 15.6266 181.477 16.1143C181.955 16.5973 182.195 17.2199 182.195 17.9822C182.195 18.6072 182.015 19.1659 181.655 19.6583C181.3 20.1508 180.803 20.539 180.163 20.8231C179.524 21.1072 178.781 21.2492 177.933 21.2492C176.821 21.2492 175.9 21.0078 175.17 20.5248C174.441 20.0419 173.98 19.3364 173.786 18.4083L175.376 18.0106C175.528 18.5977 175.814 19.0381 176.236 19.3316C176.662 19.6252 177.218 19.772 177.905 19.772C178.686 19.772 179.306 19.6063 179.766 19.2748C180.23 18.9386 180.462 18.5362 180.462 18.0674C180.462 17.6886 180.329 17.3714 180.064 17.1157C179.799 16.8553 179.392 16.6612 178.842 16.5333L177.024 16.1072C176.025 15.8705 175.291 15.5035 174.822 15.0063C174.358 14.5045 174.126 13.8771 174.126 13.1242C174.126 12.5087 174.299 11.9642 174.645 11.4907C174.995 11.0172 175.471 10.6456 176.072 10.3757C176.679 10.1058 177.365 9.97084 178.132 9.97084C179.212 9.97084 180.059 10.2076 180.675 10.6811C181.295 11.1545 181.735 11.7795 181.996 12.5561Z" fill="#385159"/>
</svg>
