<svg width="161" height="29" viewBox="0 0 161 29" fill="none" xmlns="http://www.w3.org/2000/svg">
<rect x="0.857143" y="2.87912" width="22.2857" height="22.2857" rx="2.57143" stroke="#385159" stroke-width="1.71429"/>
<path d="M16.0514 7.56482L17.1657 9.45053C15.2286 10.3591 13.8057 11.6277 12.9143 13.2734C12.04 14.902 11.5772 17.062 11.5429 19.7362H9.31431C9.05716 17.4905 7.85716 15.8277 5.54288 15.2105L6.33145 13.1191C7.22288 13.3934 8.01145 13.8734 8.69716 14.5762C9.40002 15.2791 9.86288 16.0677 10.1029 16.9591C10.4972 12.7934 12.5029 9.55339 16.0514 7.56482Z" fill="#385159"/>
<path d="M50.0341 13.7492C50.0341 15.2833 49.7571 16.6091 49.2031 17.7265C48.6491 18.8439 47.8892 19.7057 46.9233 20.3117C45.9574 20.9178 44.8542 21.2208 43.6136 21.2208C42.3731 21.2208 41.2699 20.9178 40.304 20.3117C39.3381 19.7057 38.5781 18.8439 38.0241 17.7265C37.4702 16.6091 37.1932 15.2833 37.1932 13.7492C37.1932 12.2152 37.4702 10.8894 38.0241 9.77197C38.5781 8.65455 39.3381 7.79281 40.304 7.18675C41.2699 6.58068 42.3731 6.27765 43.6136 6.27765C44.8542 6.27765 45.9574 6.58068 46.9233 7.18675C47.8892 7.79281 48.6491 8.65455 49.2031 9.77197C49.7571 10.8894 50.0341 12.2152 50.0341 13.7492ZM48.3295 13.7492C48.3295 12.4898 48.1188 11.4268 47.6974 10.5603C47.2808 9.69385 46.715 9.03807 46 8.593C45.2898 8.14792 44.4943 7.92538 43.6136 7.92538C42.733 7.92538 41.9351 8.14792 41.2202 8.593C40.5099 9.03807 39.9441 9.69385 39.5227 10.5603C39.1061 11.4268 38.8977 12.4898 38.8977 13.7492C38.8977 15.0087 39.1061 16.0717 39.5227 16.9382C39.9441 17.8046 40.5099 18.4604 41.2202 18.9055C41.9351 19.3506 42.733 19.5731 43.6136 19.5731C44.4943 19.5731 45.2898 19.3506 46 18.9055C46.715 18.4604 47.2808 17.8046 47.6974 16.9382C48.1188 16.0717 48.3295 15.0087 48.3295 13.7492ZM53.9446 14.4595V21.022H52.2685V10.1129H53.8878V11.8174H54.0298C54.2855 11.2634 54.6738 10.8184 55.1946 10.4822C55.7154 10.1413 56.3878 9.97084 57.2116 9.97084C57.9503 9.97084 58.5966 10.1224 59.1506 10.4254C59.7045 10.7237 60.1354 11.1782 60.4432 11.789C60.7509 12.3951 60.9048 13.1621 60.9048 14.0902V21.022H59.2287V14.2038C59.2287 13.3468 59.0062 12.6792 58.5611 12.2009C58.116 11.718 57.5052 11.4765 56.7287 11.4765C56.1937 11.4765 55.7154 11.5925 55.294 11.8245C54.8774 12.0565 54.5483 12.3951 54.3068 12.8402C54.0653 13.2852 53.9446 13.825 53.9446 14.4595ZM65.1438 6.47652V21.022H63.4677V6.47652H65.1438ZM67.7138 21.022V10.1129H69.3899V21.022H67.7138ZM68.5661 8.2947C68.2393 8.2947 67.9576 8.18343 67.7209 7.96089C67.4889 7.73836 67.3729 7.47084 67.3729 7.15834C67.3729 6.84584 67.4889 6.57832 67.7209 6.35578C67.9576 6.13324 68.2393 6.02197 68.5661 6.02197C68.8928 6.02197 69.1721 6.13324 69.4041 6.35578C69.6409 6.57832 69.7592 6.84584 69.7592 7.15834C69.7592 7.47084 69.6409 7.73836 69.4041 7.96089C69.1721 8.18343 68.8928 8.2947 68.5661 8.2947ZM73.636 14.4595V21.022H71.9599V10.1129H73.5792V11.8174H73.7212C73.9769 11.2634 74.3652 10.8184 74.886 10.4822C75.4068 10.1413 76.0792 9.97084 76.9031 9.97084C77.6417 9.97084 78.288 10.1224 78.842 10.4254C79.396 10.7237 79.8268 11.1782 80.1346 11.789C80.4424 12.3951 80.5962 13.1621 80.5962 14.0902V21.022H78.9201V14.2038C78.9201 13.3468 78.6976 12.6792 78.2525 12.2009C77.8074 11.718 77.1966 11.4765 76.4201 11.4765C75.8851 11.4765 75.4068 11.5925 74.9854 11.8245C74.5688 12.0565 74.2397 12.3951 73.9982 12.8402C73.7567 13.2852 73.636 13.825 73.636 14.4595ZM87.733 21.2492C86.6818 21.2492 85.7751 21.0172 85.0128 20.5532C84.2552 20.0845 83.6705 19.4311 83.2585 18.593C82.8513 17.7502 82.6477 16.7701 82.6477 15.6527C82.6477 14.5352 82.8513 13.5504 83.2585 12.6981C83.6705 11.8411 84.2434 11.1735 84.9773 10.6953C85.7159 10.2123 86.5777 9.97084 87.5625 9.97084C88.1307 9.97084 88.6918 10.0655 89.2457 10.2549C89.7997 10.4443 90.304 10.7521 90.7585 11.1782C91.2131 11.5996 91.5753 12.1583 91.8452 12.8544C92.1151 13.5504 92.25 14.4074 92.25 15.4254V16.1356H83.8409V14.6867H90.5455C90.5455 14.0712 90.4223 13.522 90.1761 13.039C89.9347 12.5561 89.589 12.1749 89.1392 11.8956C88.6941 11.6162 88.1686 11.4765 87.5625 11.4765C86.8949 11.4765 86.3172 11.6422 85.8295 11.9737C85.3466 12.3004 84.9749 12.7265 84.7145 13.2521C84.4541 13.7777 84.3239 14.3411 84.3239 14.9424V15.9083C84.3239 16.7322 84.4659 17.4306 84.75 18.0035C85.0388 18.5717 85.4389 19.0049 85.9503 19.3032C86.4616 19.5968 87.0559 19.7436 87.733 19.7436C88.1733 19.7436 88.571 19.682 88.9261 19.5589C89.286 19.4311 89.5961 19.2417 89.8565 18.9907C90.117 18.735 90.3182 18.4178 90.4602 18.039L92.0795 18.4936C91.9091 19.0428 91.6226 19.5258 91.2202 19.9424C90.8177 20.3544 90.3205 20.6763 89.7287 20.9083C89.1368 21.1356 88.4716 21.2492 87.733 21.2492ZM104.283 10.1129V11.5333H98.402V10.1129H104.283ZM100.163 21.022V8.6072C100.163 7.9822 100.31 7.46137 100.604 7.0447C100.897 6.62803 101.278 6.31553 101.747 6.1072C102.216 5.89887 102.711 5.7947 103.232 5.7947C103.643 5.7947 103.98 5.82784 104.24 5.89413C104.5 5.96042 104.695 6.02197 104.822 6.07879L104.339 7.52765C104.254 7.49924 104.136 7.46373 103.984 7.42112C103.838 7.37851 103.643 7.3572 103.402 7.3572C102.848 7.3572 102.448 7.49688 102.202 7.77623C101.96 8.05559 101.839 8.46515 101.839 9.00493V21.022H100.163ZM110.114 21.2492C109.129 21.2492 108.265 21.0149 107.522 20.5461C106.783 20.0774 106.206 19.4216 105.789 18.5788C105.377 17.736 105.171 16.7511 105.171 15.6242C105.171 14.4879 105.377 13.4959 105.789 12.6484C106.206 11.8009 106.783 11.1427 107.522 10.674C108.265 10.2052 109.129 9.97084 110.114 9.97084C111.099 9.97084 111.961 10.2052 112.7 10.674C113.443 11.1427 114.021 11.8009 114.433 12.6484C114.849 13.4959 115.058 14.4879 115.058 15.6242C115.058 16.7511 114.849 17.736 114.433 18.5788C114.021 19.4216 113.443 20.0774 112.7 20.5461C111.961 21.0149 111.099 21.2492 110.114 21.2492ZM110.114 19.7436C110.862 19.7436 111.478 19.5518 111.961 19.1683C112.444 18.7848 112.801 18.2805 113.033 17.6555C113.265 17.0305 113.381 16.3534 113.381 15.6242C113.381 14.8951 113.265 14.2156 113.033 13.5859C112.801 12.9562 112.444 12.4472 111.961 12.0589C111.478 11.6706 110.862 11.4765 110.114 11.4765C109.366 11.4765 108.751 11.6706 108.268 12.0589C107.785 12.4472 107.427 12.9562 107.195 13.5859C106.963 14.2156 106.847 14.8951 106.847 15.6242C106.847 16.3534 106.963 17.0305 107.195 17.6555C107.427 18.2805 107.785 18.7848 108.268 19.1683C108.751 19.5518 109.366 19.7436 110.114 19.7436ZM117.116 21.022V10.1129H118.735V11.7606H118.849C119.048 11.2208 119.408 10.7829 119.929 10.4467C120.449 10.1105 121.037 9.94243 121.69 9.94243C121.813 9.94243 121.967 9.94479 122.152 9.94953C122.336 9.95426 122.476 9.96137 122.571 9.97084V11.6754C122.514 11.6612 122.384 11.6399 122.18 11.6115C121.981 11.5783 121.77 11.5617 121.548 11.5617C121.018 11.5617 120.544 11.673 120.127 11.8956C119.716 12.1134 119.389 12.4164 119.147 12.8046C118.911 13.1882 118.792 13.6261 118.792 14.1186V21.022H117.116ZM130.933 16.5617V10.1129H132.609V21.022H130.933V19.1754H130.819C130.563 19.7294 130.165 20.2005 129.626 20.5887C129.086 20.9723 128.404 21.164 127.58 21.164C126.898 21.164 126.292 21.0149 125.762 20.7166C125.232 20.4135 124.815 19.959 124.512 19.3529C124.209 18.7421 124.058 17.9727 124.058 17.0447V10.1129H125.734V16.9311C125.734 17.7265 125.956 18.361 126.401 18.8345C126.851 19.308 127.424 19.5447 128.12 19.5447C128.537 19.5447 128.96 19.4382 129.391 19.2251C129.827 19.012 130.192 18.6853 130.485 18.245C130.783 17.8046 130.933 17.2436 130.933 16.5617ZM135.179 21.022V10.1129H136.798V11.8174H136.94C137.167 11.235 137.534 10.7829 138.041 10.4609C138.547 10.1342 139.156 9.97084 139.866 9.97084C140.586 9.97084 141.185 10.1342 141.663 10.4609C142.146 10.7829 142.522 11.235 142.792 11.8174H142.906C143.185 11.254 143.604 10.8065 144.163 10.4751C144.722 10.1389 145.392 9.97084 146.173 9.97084C147.148 9.97084 147.946 10.2762 148.566 10.887C149.187 11.4931 149.497 12.4377 149.497 13.7208V21.022H147.821V13.7208C147.821 12.9159 147.6 12.3406 147.16 11.995C146.72 11.6493 146.201 11.4765 145.605 11.4765C144.838 11.4765 144.243 11.7085 143.822 12.1725C143.401 12.6318 143.19 13.2142 143.19 13.9197V21.022H141.485V13.5504C141.485 12.9301 141.284 12.4306 140.882 12.0518C140.479 11.6683 139.961 11.4765 139.326 11.4765C138.891 11.4765 138.484 11.5925 138.105 11.8245C137.731 12.0565 137.428 12.3785 137.196 12.7904C136.968 13.1976 136.855 13.6688 136.855 14.2038V21.022H135.179ZM159.789 12.5561L158.283 12.9822C158.188 12.7313 158.049 12.4874 157.864 12.2507C157.684 12.0092 157.438 11.8103 157.125 11.6541C156.813 11.4978 156.413 11.4197 155.925 11.4197C155.257 11.4197 154.701 11.5736 154.256 11.8813C153.816 12.1844 153.596 12.5703 153.596 13.039C153.596 13.4557 153.747 13.7848 154.05 14.0262C154.353 14.2677 154.827 14.4689 155.471 14.6299L157.09 15.0277C158.065 15.2644 158.792 15.6266 159.27 16.1143C159.748 16.5973 159.988 17.2199 159.988 17.9822C159.988 18.6072 159.808 19.1659 159.448 19.6583C159.093 20.1508 158.596 20.539 157.956 20.8231C157.317 21.1072 156.574 21.2492 155.726 21.2492C154.614 21.2492 153.693 21.0078 152.963 20.5248C152.234 20.0419 151.773 19.3364 151.578 18.4083L153.169 18.0106C153.321 18.5977 153.607 19.0381 154.029 19.3316C154.455 19.6252 155.011 19.772 155.698 19.772C156.479 19.772 157.099 19.6063 157.559 19.2748C158.023 18.9386 158.255 18.5362 158.255 18.0674C158.255 17.6886 158.122 17.3714 157.857 17.1157C157.592 16.8553 157.185 16.6612 156.635 16.5333L154.817 16.1072C153.818 15.8705 153.084 15.5035 152.615 15.0063C152.151 14.5045 151.919 13.8771 151.919 13.1242C151.919 12.5087 152.092 11.9642 152.438 11.4907C152.788 11.0172 153.264 10.6456 153.865 10.3757C154.471 10.1058 155.158 9.97084 155.925 9.97084C157.005 9.97084 157.852 10.2076 158.468 10.6811C159.088 11.1545 159.528 11.7795 159.789 12.5561Z" fill="#385159"/>
</svg>
