<svg width="156" height="29" viewBox="0 0 156 29" fill="none" xmlns="http://www.w3.org/2000/svg">
<rect x="1" y="3.02197" width="22" height="22" rx="3" stroke="#062630" stroke-width="2"/>
<path d="M15.948 8.16197L16.988 9.92197C15.18 10.77 13.852 11.954 13.02 13.49C12.204 15.01 11.772 17.026 11.74 19.522H9.66C9.42 17.426 8.3 15.874 6.14 15.298L6.876 13.346C7.708 13.602 8.444 14.05 9.084 14.706C9.74 15.362 10.172 16.098 10.396 16.93C10.764 13.042 12.636 10.018 15.948 8.16197Z" fill="#062630"/>
<path d="M36.9659 8.03902V6.47652H47.875V8.03902H43.3011V21.022H41.5398V8.03902H36.9659ZM52.958 21.2492C51.9068 21.2492 51.0001 21.0172 50.2378 20.5532C49.4802 20.0845 48.8955 19.4311 48.4835 18.593C48.0763 17.7502 47.8727 16.7701 47.8727 15.6527C47.8727 14.5352 48.0763 13.5504 48.4835 12.6981C48.8955 11.8411 49.4684 11.1735 50.2023 10.6953C50.9409 10.2123 51.8027 9.97084 52.7875 9.97084C53.3557 9.97084 53.9168 10.0655 54.4707 10.2549C55.0247 10.4443 55.529 10.7521 55.9835 11.1782C56.4381 11.5996 56.8003 12.1583 57.0702 12.8544C57.3401 13.5504 57.475 14.4074 57.475 15.4254V16.1356H49.0659V14.6867H55.7705C55.7705 14.0712 55.6473 13.522 55.4011 13.039C55.1597 12.5561 54.814 12.1749 54.3642 11.8956C53.9191 11.6162 53.3936 11.4765 52.7875 11.4765C52.1199 11.4765 51.5422 11.6422 51.0545 11.9737C50.5716 12.3004 50.1999 12.7265 49.9395 13.2521C49.6791 13.7777 49.5489 14.3411 49.5489 14.9424V15.9083C49.5489 16.7322 49.6909 17.4306 49.975 18.0035C50.2638 18.5717 50.6639 19.0049 51.1753 19.3032C51.6866 19.5968 52.2809 19.7436 52.958 19.7436C53.3983 19.7436 53.796 19.682 54.1511 19.5589C54.511 19.4311 54.8211 19.2417 55.0815 18.9907C55.342 18.735 55.5432 18.4178 55.6852 18.039L57.3045 18.4936C57.1341 19.0428 56.8476 19.5258 56.4452 19.9424C56.0427 20.3544 55.5455 20.6763 54.9537 20.9083C54.3618 21.1356 53.6966 21.2492 52.958 21.2492ZM62.8349 21.2777C62.1437 21.2777 61.5163 21.1474 60.9528 20.887C60.3894 20.6219 59.942 20.2407 59.6105 19.7436C59.2791 19.2417 59.1134 18.6356 59.1134 17.9254C59.1134 17.3004 59.2365 16.7938 59.4827 16.4055C59.7289 16.0125 60.058 15.7047 60.4699 15.4822C60.8818 15.2597 61.3364 15.0939 61.8335 14.985C62.3354 14.8714 62.8397 14.7814 63.3463 14.7152C64.0092 14.6299 64.5466 14.566 64.9585 14.5234C65.3752 14.476 65.6782 14.3979 65.8676 14.289C66.0617 14.1801 66.1588 13.9907 66.1588 13.7208V13.664C66.1588 12.9633 65.967 12.4188 65.5835 12.0305C65.2047 11.6422 64.6295 11.4481 63.8577 11.4481C63.0575 11.4481 62.4301 11.6233 61.9756 11.9737C61.521 12.3241 61.2014 12.6981 61.0168 13.0958L59.4259 12.5277C59.7099 11.8648 60.0887 11.3487 60.5622 10.9794C61.0404 10.6053 61.5613 10.3449 62.1247 10.1981C62.6929 10.0466 63.2516 9.97084 63.8009 9.97084C64.1512 9.97084 64.5537 10.0134 65.0082 10.0987C65.4675 10.1792 65.9102 10.3473 66.3364 10.6029C66.7672 10.8586 67.1247 11.2445 67.4088 11.7606C67.6929 12.2767 67.8349 12.968 67.8349 13.8345V21.022H66.1588V19.5447H66.0736C65.9599 19.7814 65.7706 20.0348 65.5054 20.3046C65.2402 20.5745 64.8875 20.8042 64.4472 20.9936C64.0068 21.183 63.4694 21.2777 62.8349 21.2777ZM63.0906 19.772C63.7535 19.772 64.3122 19.6418 64.7668 19.3813C65.226 19.1209 65.5717 18.7848 65.8037 18.3728C66.0404 17.9609 66.1588 17.5277 66.1588 17.0731V15.539C66.0878 15.6242 65.9315 15.7024 65.6901 15.7734C65.4533 15.8397 65.1787 15.8989 64.8662 15.9509C64.5584 15.9983 64.2578 16.0409 63.9642 16.0788C63.6754 16.1119 63.441 16.1403 63.2611 16.164C62.8255 16.2208 62.4183 16.3132 62.0395 16.441C61.6654 16.5641 61.3624 16.7511 61.1304 17.0021C60.9031 17.2483 60.7895 17.5845 60.7895 18.0106C60.7895 18.593 61.0049 19.0333 61.4358 19.3316C61.8714 19.6252 62.423 19.772 63.0906 19.772ZM70.4942 21.022V10.1129H72.1136V11.8174H72.2556C72.4829 11.235 72.8498 10.7829 73.3565 10.4609C73.8631 10.1342 74.4715 9.97084 75.1817 9.97084C75.9014 9.97084 76.5004 10.1342 76.9786 10.4609C77.4616 10.7829 77.838 11.235 78.1079 11.8174H78.2215C78.5009 11.254 78.9199 10.8065 79.4786 10.4751C80.0373 10.1389 80.7073 9.97084 81.4886 9.97084C82.4639 9.97084 83.2618 10.2762 83.882 10.887C84.5023 11.4931 84.8124 12.4377 84.8124 13.7208V21.022H83.1363V13.7208C83.1363 12.9159 82.9161 12.3406 82.4758 11.995C82.0354 11.6493 81.517 11.4765 80.9204 11.4765C80.1533 11.4765 79.5591 11.7085 79.1377 12.1725C78.7163 12.6318 78.5056 13.2142 78.5056 13.9197V21.022H76.8011V13.5504C76.8011 12.9301 76.5998 12.4306 76.1974 12.0518C75.7949 11.6683 75.2764 11.4765 74.642 11.4765C74.2064 11.4765 73.7992 11.5925 73.4204 11.8245C73.0463 12.0565 72.7433 12.3785 72.5113 12.7904C72.284 13.1976 72.1704 13.6688 72.1704 14.2038V21.022H70.4942ZM95.9123 21.2777C95.221 21.2777 94.5936 21.1474 94.0302 20.887C93.4667 20.6219 93.0193 20.2407 92.6879 19.7436C92.3564 19.2417 92.1907 18.6356 92.1907 17.9254C92.1907 17.3004 92.3138 16.7938 92.56 16.4055C92.8062 16.0125 93.1353 15.7047 93.5472 15.4822C93.9592 15.2597 94.4137 15.0939 94.9109 14.985C95.4128 14.8714 95.917 14.7814 96.4237 14.7152C97.0865 14.6299 97.6239 14.566 98.0359 14.5234C98.4525 14.476 98.7556 14.3979 98.945 14.289C99.1391 14.1801 99.2362 13.9907 99.2362 13.7208V13.664C99.2362 12.9633 99.0444 12.4188 98.6609 12.0305C98.2821 11.6422 97.7068 11.4481 96.935 11.4481C96.1348 11.4481 95.5075 11.6233 95.0529 11.9737C94.5984 12.3241 94.2788 12.6981 94.0941 13.0958L92.5032 12.5277C92.7873 11.8648 93.1661 11.3487 93.6396 10.9794C94.1178 10.6053 94.6386 10.3449 95.2021 10.1981C95.7702 10.0466 96.329 9.97084 96.8782 9.97084C97.2286 9.97084 97.631 10.0134 98.0856 10.0987C98.5449 10.1792 98.9876 10.3473 99.4137 10.6029C99.8446 10.8586 100.202 11.2445 100.486 11.7606C100.77 12.2767 100.912 12.968 100.912 13.8345V21.022H99.2362V19.5447H99.1509C99.0373 19.7814 98.8479 20.0348 98.5827 20.3046C98.3176 20.5745 97.9648 20.8042 97.5245 20.9936C97.0842 21.183 96.5468 21.2777 95.9123 21.2777ZM96.168 19.772C96.8308 19.772 97.3896 19.6418 97.8441 19.3813C98.3034 19.1209 98.649 18.7848 98.881 18.3728C99.1178 17.9609 99.2362 17.5277 99.2362 17.0731V15.539C99.1651 15.6242 99.0089 15.7024 98.7674 15.7734C98.5307 15.8397 98.256 15.8989 97.9435 15.9509C97.6358 15.9983 97.3351 16.0409 97.0415 16.0788C96.7527 16.1119 96.5183 16.1403 96.3384 16.164C95.9028 16.2208 95.4956 16.3132 95.1168 16.441C94.7428 16.5641 94.4397 16.7511 94.2077 17.0021C93.9805 17.2483 93.8668 17.5845 93.8668 18.0106C93.8668 18.593 94.0823 19.0333 94.5131 19.3316C94.9487 19.6252 95.5004 19.772 96.168 19.772ZM108.003 21.2492C106.981 21.2492 106.1 21.0078 105.361 20.5248C104.623 20.0419 104.055 19.3766 103.657 18.5291C103.259 17.6815 103.06 16.7133 103.06 15.6242C103.06 14.5163 103.264 13.5385 103.671 12.691C104.083 11.8387 104.656 11.1735 105.39 10.6953C106.128 10.2123 106.99 9.97084 107.975 9.97084C108.742 9.97084 109.433 10.1129 110.049 10.397C110.664 10.6811 111.169 11.0788 111.562 11.5902C111.955 12.1015 112.198 12.6981 112.293 13.3799H110.617C110.489 12.8828 110.205 12.4424 109.765 12.0589C109.329 11.6706 108.742 11.4765 108.003 11.4765C107.35 11.4765 106.777 11.647 106.285 11.9879C105.797 12.3241 105.416 12.7999 105.141 13.4154C104.871 14.0262 104.736 14.7436 104.736 15.5674C104.736 16.4102 104.869 17.1441 105.134 17.7691C105.404 18.3941 105.783 18.8795 106.27 19.2251C106.763 19.5707 107.341 19.7436 108.003 19.7436C108.439 19.7436 108.834 19.6678 109.189 19.5163C109.545 19.3648 109.845 19.147 110.091 18.8629C110.338 18.5788 110.513 18.2379 110.617 17.8402H112.293C112.198 18.4841 111.964 19.0641 111.59 19.5802C111.221 20.0916 110.731 20.4988 110.12 20.8018C109.514 21.1001 108.808 21.2492 108.003 21.2492ZM118.775 21.2492C117.753 21.2492 116.872 21.0078 116.133 20.5248C115.395 20.0419 114.826 19.3766 114.429 18.5291C114.031 17.6815 113.832 16.7133 113.832 15.6242C113.832 14.5163 114.036 13.5385 114.443 12.691C114.855 11.8387 115.428 11.1735 116.162 10.6953C116.9 10.2123 117.762 9.97084 118.747 9.97084C119.514 9.97084 120.205 10.1129 120.821 10.397C121.436 10.6811 121.941 11.0788 122.334 11.5902C122.727 12.1015 122.97 12.6981 123.065 13.3799H121.389C121.261 12.8828 120.977 12.4424 120.537 12.0589C120.101 11.6706 119.514 11.4765 118.775 11.4765C118.122 11.4765 117.549 11.647 117.057 11.9879C116.569 12.3241 116.188 12.7999 115.913 13.4154C115.643 14.0262 115.508 14.7436 115.508 15.5674C115.508 16.4102 115.641 17.1441 115.906 17.7691C116.176 18.3941 116.555 18.8795 117.042 19.2251C117.535 19.5707 118.112 19.7436 118.775 19.7436C119.211 19.7436 119.606 19.6678 119.961 19.5163C120.316 19.3648 120.617 19.147 120.863 18.8629C121.11 18.5788 121.285 18.2379 121.389 17.8402H123.065C122.97 18.4841 122.736 19.0641 122.362 19.5802C121.993 20.0916 121.503 20.4988 120.892 20.8018C120.286 21.1001 119.58 21.2492 118.775 21.2492ZM129.689 21.2492C128.638 21.2492 127.731 21.0172 126.969 20.5532C126.211 20.0845 125.627 19.4311 125.215 18.593C124.808 17.7502 124.604 16.7701 124.604 15.6527C124.604 14.5352 124.808 13.5504 125.215 12.6981C125.627 11.8411 126.2 11.1735 126.934 10.6953C127.672 10.2123 128.534 9.97084 129.519 9.97084C130.087 9.97084 130.648 10.0655 131.202 10.2549C131.756 10.4443 132.26 10.7521 132.715 11.1782C133.169 11.5996 133.532 12.1583 133.801 12.8544C134.071 13.5504 134.206 14.4074 134.206 15.4254V16.1356H125.797V14.6867H132.502C132.502 14.0712 132.379 13.522 132.132 13.039C131.891 12.5561 131.545 12.1749 131.095 11.8956C130.65 11.6162 130.125 11.4765 129.519 11.4765C128.851 11.4765 128.273 11.6422 127.786 11.9737C127.303 12.3004 126.931 12.7265 126.671 13.2521C126.41 13.7777 126.28 14.3411 126.28 14.9424V15.9083C126.28 16.7322 126.422 17.4306 126.706 18.0035C126.995 18.5717 127.395 19.0049 127.907 19.3032C128.418 19.5968 129.012 19.7436 129.689 19.7436C130.13 19.7436 130.527 19.682 130.882 19.5589C131.242 19.4311 131.552 19.2417 131.813 18.9907C132.073 18.735 132.274 18.4178 132.416 18.039L134.036 18.4936C133.865 19.0428 133.579 19.5258 133.176 19.9424C132.774 20.3544 132.277 20.6763 131.685 20.9083C131.093 21.1356 130.428 21.2492 129.689 21.2492ZM144.083 12.5561L142.578 12.9822C142.483 12.7313 142.343 12.4874 142.159 12.2507C141.979 12.0092 141.732 11.8103 141.42 11.6541C141.107 11.4978 140.707 11.4197 140.22 11.4197C139.552 11.4197 138.996 11.5736 138.551 11.8813C138.11 12.1844 137.89 12.5703 137.89 13.039C137.89 13.4557 138.042 13.7848 138.345 14.0262C138.648 14.2677 139.121 14.4689 139.765 14.6299L141.384 15.0277C142.36 15.2644 143.087 15.6266 143.565 16.1143C144.043 16.5973 144.282 17.2199 144.282 17.9822C144.282 18.6072 144.102 19.1659 143.742 19.6583C143.387 20.1508 142.89 20.539 142.251 20.8231C141.612 21.1072 140.868 21.2492 140.021 21.2492C138.908 21.2492 137.987 21.0078 137.258 20.5248C136.529 20.0419 136.067 19.3364 135.873 18.4083L137.464 18.0106C137.615 18.5977 137.902 19.0381 138.323 19.3316C138.749 19.6252 139.306 19.772 139.992 19.772C140.774 19.772 141.394 19.6063 141.853 19.2748C142.317 18.9386 142.549 18.5362 142.549 18.0674C142.549 17.6886 142.417 17.3714 142.151 17.1157C141.886 16.8553 141.479 16.6612 140.93 16.5333L139.112 16.1072C138.113 15.8705 137.379 15.5035 136.91 15.0063C136.446 14.5045 136.214 13.8771 136.214 13.1242C136.214 12.5087 136.387 11.9642 136.732 11.4907C137.083 11.0172 137.559 10.6456 138.16 10.3757C138.766 10.1058 139.453 9.97084 140.22 9.97084C141.299 9.97084 142.147 10.2076 142.762 10.6811C143.382 11.1545 143.823 11.7795 144.083 12.5561ZM154.132 12.5561L152.627 12.9822C152.532 12.7313 152.392 12.4874 152.208 12.2507C152.028 12.0092 151.782 11.8103 151.469 11.6541C151.157 11.4978 150.757 11.4197 150.269 11.4197C149.601 11.4197 149.045 11.5736 148.6 11.8813C148.159 12.1844 147.939 12.5703 147.939 13.039C147.939 13.4557 148.091 13.7848 148.394 14.0262C148.697 14.2677 149.17 14.4689 149.814 14.6299L151.434 15.0277C152.409 15.2644 153.136 15.6266 153.614 16.1143C154.092 16.5973 154.331 17.2199 154.331 17.9822C154.331 18.6072 154.151 19.1659 153.792 19.6583C153.436 20.1508 152.939 20.539 152.3 20.8231C151.661 21.1072 150.917 21.2492 150.07 21.2492C148.957 21.2492 148.036 21.0078 147.307 20.5248C146.578 20.0419 146.116 19.3364 145.922 18.4083L147.513 18.0106C147.665 18.5977 147.951 19.0381 148.373 19.3316C148.799 19.6252 149.355 19.772 150.042 19.772C150.823 19.772 151.443 19.6063 151.902 19.2748C152.366 18.9386 152.598 18.5362 152.598 18.0674C152.598 17.6886 152.466 17.3714 152.201 17.1157C151.935 16.8553 151.528 16.6612 150.979 16.5333L149.161 16.1072C148.162 15.8705 147.428 15.5035 146.959 15.0063C146.495 14.5045 146.263 13.8771 146.263 13.1242C146.263 12.5087 146.436 11.9642 146.782 11.4907C147.132 11.0172 147.608 10.6456 148.209 10.3757C148.815 10.1058 149.502 9.97084 150.269 9.97084C151.348 9.97084 152.196 10.2076 152.811 10.6811C153.432 11.1545 153.872 11.7795 154.132 12.5561Z" fill="#385159"/>
</svg>
