<svg width="175" height="29" viewBox="0 0 175 29" fill="none" xmlns="http://www.w3.org/2000/svg">
<rect x="1" y="3.02197" width="22" height="22" rx="3" stroke="#062630" stroke-width="2"/>
<path d="M15.948 8.16197L16.988 9.92197C15.18 10.77 13.852 11.954 13.02 13.49C12.204 15.01 11.772 17.026 11.74 19.522H9.66C9.42 17.426 8.3 15.874 6.14 15.298L6.876 13.346C7.708 13.602 8.444 14.05 9.084 14.706C9.74 15.362 10.172 16.098 10.396 16.93C10.764 13.042 12.636 10.018 15.948 8.16197Z" fill="#062630"/>
<path d="M37.5057 21.022V19.7436L42.3068 14.4879C42.8703 13.8724 43.3343 13.3373 43.6989 12.8828C44.0634 12.4235 44.3333 11.9926 44.5085 11.5902C44.6884 11.183 44.7784 10.7568 44.7784 10.3117C44.7784 9.80038 44.6553 9.35767 44.4091 8.98362C44.1676 8.60957 43.8362 8.32074 43.4148 8.11714C42.9934 7.91354 42.5199 7.81175 41.9943 7.81175C41.4356 7.81175 40.9479 7.92775 40.5312 8.15976C40.1193 8.38703 39.7997 8.70663 39.5724 9.11856C39.3499 9.5305 39.2386 10.0134 39.2386 10.5674H37.5625C37.5625 9.71515 37.759 8.96705 38.152 8.32311C38.545 7.67917 39.08 7.17727 39.7571 6.81743C40.4389 6.45758 41.2036 6.27765 42.0511 6.27765C42.9034 6.27765 43.6586 6.45758 44.3168 6.81743C44.9749 7.17727 45.491 7.6626 45.8651 8.27339C46.2391 8.88419 46.4261 9.56364 46.4261 10.3117C46.4261 10.8468 46.3291 11.37 46.1349 11.8813C45.9455 12.388 45.6141 12.9538 45.1406 13.5788C44.6719 14.1991 44.0208 14.9566 43.1875 15.8515L39.9205 19.3458V19.4595H46.6818V21.022H37.5057ZM54.6957 21.022V6.47652H56.3719V11.8458H56.5139C56.637 11.6564 56.8075 11.415 57.0253 11.1214C57.2478 10.8231 57.5651 10.558 57.977 10.326C58.3937 10.0892 58.9571 9.97084 59.6673 9.97084C60.5859 9.97084 61.3956 10.2005 62.0963 10.6598C62.7971 11.119 63.3439 11.7701 63.7369 12.6129C64.1299 13.4557 64.3264 14.45 64.3264 15.5958C64.3264 16.7511 64.1299 17.7526 63.7369 18.6001C63.3439 19.4429 62.7994 20.0963 62.1034 20.5603C61.4074 21.0196 60.6048 21.2492 59.6957 21.2492C58.995 21.2492 58.4339 21.1332 58.0125 20.9012C57.5911 20.6645 57.2668 20.397 57.0395 20.0987C56.8122 19.7956 56.637 19.5447 56.5139 19.3458H56.3151V21.022H54.6957ZM56.3435 15.5674C56.3435 16.3913 56.4642 17.1181 56.7057 17.7478C56.9472 18.3728 57.2999 18.8629 57.7639 19.218C58.2279 19.5684 58.7961 19.7436 59.4685 19.7436C60.1692 19.7436 60.754 19.5589 61.2227 19.1896C61.6962 18.8155 62.0513 18.3136 62.2881 17.6839C62.5295 17.0494 62.6503 16.3439 62.6503 15.5674C62.6503 14.8004 62.5319 14.1091 62.2952 13.4936C62.0632 12.8733 61.7104 12.3832 61.2369 12.0234C60.7682 11.6588 60.1787 11.4765 59.4685 11.4765C58.7866 11.4765 58.2137 11.6493 57.7497 11.995C57.2857 12.3359 56.9353 12.8141 56.6986 13.4296C56.4618 14.0404 56.3435 14.753 56.3435 15.5674ZM70.9222 21.2492C69.9373 21.2492 69.0732 21.0149 68.3298 20.5461C67.5912 20.0774 67.0135 19.4216 66.5969 18.5788C66.1849 17.736 65.979 16.7511 65.979 15.6242C65.979 14.4879 66.1849 13.4959 66.5969 12.6484C67.0135 11.8009 67.5912 11.1427 68.3298 10.674C69.0732 10.2052 69.9373 9.97084 70.9222 9.97084C71.907 9.97084 72.7687 10.2052 73.5074 10.674C74.2508 11.1427 74.8284 11.8009 75.2403 12.6484C75.657 13.4959 75.8653 14.4879 75.8653 15.6242C75.8653 16.7511 75.657 17.736 75.2403 18.5788C74.8284 19.4216 74.2508 20.0774 73.5074 20.5461C72.7687 21.0149 71.907 21.2492 70.9222 21.2492ZM70.9222 19.7436C71.6703 19.7436 72.2858 19.5518 72.7687 19.1683C73.2517 18.7848 73.6092 18.2805 73.8412 17.6555C74.0732 17.0305 74.1892 16.3534 74.1892 15.6242C74.1892 14.8951 74.0732 14.2156 73.8412 13.5859C73.6092 12.9562 73.2517 12.4472 72.7687 12.0589C72.2858 11.6706 71.6703 11.4765 70.9222 11.4765C70.1741 11.4765 69.5585 11.6706 69.0756 12.0589C68.5926 12.4472 68.2351 12.9562 68.0031 13.5859C67.7711 14.2156 67.6551 14.8951 67.6551 15.6242C67.6551 16.3534 67.7711 17.0305 68.0031 17.6555C68.2351 18.2805 68.5926 18.7848 69.0756 19.1683C69.5585 19.5518 70.1741 19.7436 70.9222 19.7436ZM82.4558 21.2492C81.4709 21.2492 80.6068 21.0149 79.8634 20.5461C79.1248 20.0774 78.5471 19.4216 78.1305 18.5788C77.7185 17.736 77.5126 16.7511 77.5126 15.6242C77.5126 14.4879 77.7185 13.4959 78.1305 12.6484C78.5471 11.8009 79.1248 11.1427 79.8634 10.674C80.6068 10.2052 81.4709 9.97084 82.4558 9.97084C83.4406 9.97084 84.3023 10.2052 85.041 10.674C85.7844 11.1427 86.362 11.8009 86.7739 12.6484C87.1906 13.4959 87.3989 14.4879 87.3989 15.6242C87.3989 16.7511 87.1906 17.736 86.7739 18.5788C86.362 19.4216 85.7844 20.0774 85.041 20.5461C84.3023 21.0149 83.4406 21.2492 82.4558 21.2492ZM82.4558 19.7436C83.2039 19.7436 83.8194 19.5518 84.3023 19.1683C84.7853 18.7848 85.1428 18.2805 85.3748 17.6555C85.6068 17.0305 85.7228 16.3534 85.7228 15.6242C85.7228 14.8951 85.6068 14.2156 85.3748 13.5859C85.1428 12.9562 84.7853 12.4472 84.3023 12.0589C83.8194 11.6706 83.2039 11.4765 82.4558 11.4765C81.7076 11.4765 81.0921 11.6706 80.6092 12.0589C80.1262 12.4472 79.7687 12.9562 79.5367 13.5859C79.3047 14.2156 79.1887 14.8951 79.1887 15.6242C79.1887 16.3534 79.3047 17.0305 79.5367 17.6555C79.7687 18.2805 80.1262 18.7848 80.6092 19.1683C81.0921 19.5518 81.7076 19.7436 82.4558 19.7436ZM91.12 17.0447L91.0916 14.9708H91.4325L96.2053 10.1129H98.2791L93.1939 15.2549H93.0518L91.12 17.0447ZM89.5575 21.022V6.47652H91.2337V21.022H89.5575ZM96.4893 21.022L92.228 15.6242L93.4212 14.4595L98.62 21.022H96.4893ZM107.764 12.5561L106.258 12.9822C106.163 12.7313 106.024 12.4874 105.839 12.2507C105.659 12.0092 105.413 11.8103 105.1 11.6541C104.788 11.4978 104.388 11.4197 103.9 11.4197C103.232 11.4197 102.676 11.5736 102.231 11.8813C101.791 12.1844 101.571 12.5703 101.571 13.039C101.571 13.4557 101.722 13.7848 102.025 14.0262C102.328 14.2677 102.802 14.4689 103.446 14.6299L105.065 15.0277C106.04 15.2644 106.767 15.6266 107.245 16.1143C107.723 16.5973 107.963 17.2199 107.963 17.9822C107.963 18.6072 107.783 19.1659 107.423 19.6583C107.068 20.1508 106.571 20.539 105.931 20.8231C105.292 21.1072 104.549 21.2492 103.701 21.2492C102.589 21.2492 101.668 21.0078 100.938 20.5248C100.209 20.0419 99.7476 19.3364 99.5535 18.4083L101.144 18.0106C101.296 18.5977 101.582 19.0381 102.004 19.3316C102.43 19.6252 102.986 19.772 103.673 19.772C104.454 19.772 105.074 19.6063 105.534 19.2748C105.998 18.9386 106.23 18.5362 106.23 18.0674C106.23 17.6886 106.097 17.3714 105.832 17.1157C105.567 16.8553 105.16 16.6612 104.61 16.5333L102.792 16.1072C101.793 15.8705 101.059 15.5035 100.59 15.0063C100.126 14.5045 99.8944 13.8771 99.8944 13.1242C99.8944 12.5087 100.067 11.9642 100.413 11.4907C100.763 11.0172 101.239 10.6456 101.84 10.3757C102.446 10.1058 103.133 9.97084 103.9 9.97084C104.98 9.97084 105.827 10.2076 106.443 10.6811C107.063 11.1545 107.503 11.7795 107.764 12.5561ZM115.228 5.7947L110.54 23.2095H109.006L113.694 5.7947H115.228ZM116.815 21.022V10.1129H118.434V11.8174H118.576C118.803 11.235 119.17 10.7829 119.677 10.4609C120.183 10.1342 120.792 9.97084 121.502 9.97084C122.222 9.97084 122.821 10.1342 123.299 10.4609C123.782 10.7829 124.158 11.235 124.428 11.8174H124.542C124.821 11.254 125.24 10.8065 125.799 10.4751C126.358 10.1389 127.028 9.97084 127.809 9.97084C128.784 9.97084 129.582 10.2762 130.202 10.887C130.823 11.4931 131.133 12.4377 131.133 13.7208V21.022H129.457V13.7208C129.457 12.9159 129.236 12.3406 128.796 11.995C128.356 11.6493 127.837 11.4765 127.241 11.4765C126.474 11.4765 125.879 11.7085 125.458 12.1725C125.037 12.6318 124.826 13.2142 124.826 13.9197V21.022H123.121V13.5504C123.121 12.9301 122.92 12.4306 122.518 12.0518C122.115 11.6683 121.597 11.4765 120.962 11.4765C120.527 11.4765 120.119 11.5925 119.741 11.8245C119.367 12.0565 119.064 12.3785 118.832 12.7904C118.604 13.1976 118.491 13.6688 118.491 14.2038V21.022H116.815ZM138.229 21.2492C137.244 21.2492 136.38 21.0149 135.637 20.5461C134.898 20.0774 134.321 19.4216 133.904 18.5788C133.492 17.736 133.286 16.7511 133.286 15.6242C133.286 14.4879 133.492 13.4959 133.904 12.6484C134.321 11.8009 134.898 11.1427 135.637 10.674C136.38 10.2052 137.244 9.97084 138.229 9.97084C139.214 9.97084 140.076 10.2052 140.814 10.674C141.558 11.1427 142.135 11.8009 142.547 12.6484C142.964 13.4959 143.172 14.4879 143.172 15.6242C143.172 16.7511 142.964 17.736 142.547 18.5788C142.135 19.4216 141.558 20.0774 140.814 20.5461C140.076 21.0149 139.214 21.2492 138.229 21.2492ZM138.229 19.7436C138.977 19.7436 139.593 19.5518 140.076 19.1683C140.559 18.7848 140.916 18.2805 141.148 17.6555C141.38 17.0305 141.496 16.3534 141.496 15.6242C141.496 14.8951 141.38 14.2156 141.148 13.5859C140.916 12.9562 140.559 12.4472 140.076 12.0589C139.593 11.6706 138.977 11.4765 138.229 11.4765C137.481 11.4765 136.866 11.6706 136.383 12.0589C135.9 12.4472 135.542 12.9562 135.31 13.5859C135.078 14.2156 134.962 14.8951 134.962 15.6242C134.962 16.3534 135.078 17.0305 135.31 17.6555C135.542 18.2805 135.9 18.7848 136.383 19.1683C136.866 19.5518 137.481 19.7436 138.229 19.7436ZM147.007 14.4595V21.022H145.331V10.1129H146.95V11.8174H147.092C147.348 11.2634 147.736 10.8184 148.257 10.4822C148.778 10.1413 149.45 9.97084 150.274 9.97084C151.013 9.97084 151.659 10.1224 152.213 10.4254C152.767 10.7237 153.198 11.1782 153.506 11.789C153.813 12.3951 153.967 13.1621 153.967 14.0902V21.022H152.291V14.2038C152.291 13.3468 152.069 12.6792 151.624 12.2009C151.179 11.718 150.568 11.4765 149.791 11.4765C149.256 11.4765 148.778 11.5925 148.357 11.8245C147.94 12.0565 147.611 12.3951 147.369 12.8402C147.128 13.2852 147.007 13.825 147.007 14.4595ZM161.375 10.1129V11.5333H155.721V10.1129H161.375ZM157.369 7.49925H159.045V17.897C159.045 18.3705 159.114 18.7256 159.251 18.9623C159.393 19.1943 159.573 19.3506 159.791 19.4311C160.013 19.5068 160.248 19.5447 160.494 19.5447C160.678 19.5447 160.83 19.5352 160.948 19.5163C161.067 19.4926 161.161 19.4737 161.232 19.4595L161.573 20.9652C161.46 21.0078 161.301 21.0504 161.098 21.093C160.894 21.1403 160.636 21.164 160.323 21.164C159.85 21.164 159.386 21.0622 158.931 20.8586C158.482 20.655 158.107 20.3449 157.809 19.9282C157.516 19.5116 157.369 18.986 157.369 18.3515V7.49925ZM165.406 14.4595V21.022H163.73V6.47652H165.406V11.8174H165.548C165.804 11.254 166.188 10.8065 166.699 10.4751C167.215 10.1389 167.902 9.97084 168.759 9.97084C169.502 9.97084 170.153 10.12 170.712 10.4183C171.27 10.7118 171.704 11.164 172.011 11.7748C172.324 12.3809 172.48 13.1527 172.48 14.0902V21.022H170.804V14.2038C170.804 13.3373 170.579 12.6673 170.129 12.1938C169.684 11.7156 169.066 11.4765 168.276 11.4765C167.726 11.4765 167.234 11.5925 166.798 11.8245C166.367 12.0565 166.027 12.3951 165.776 12.8402C165.529 13.2852 165.406 13.825 165.406 14.4595Z" fill="#385159"/>
</svg>
