<svg width="66" height="35" viewBox="0 0 66 35" fill="none" xmlns="http://www.w3.org/2000/svg">
<path d="M8.404 4.16197V0.421971H12.11V4.16197H8.404ZM8.404 34.422V30.682H12.11V34.422H8.404ZM5.378 23.746C5.69533 24.8113 6.25067 25.616 7.044 26.16C7.86 26.704 8.90267 26.976 10.172 26.976C11.5093 26.976 12.5633 26.6586 13.334 26.024C14.1047 25.3666 14.49 24.4713 14.49 23.338C14.49 22.4993 14.218 21.808 13.674 21.264C13.13 20.72 12.3593 20.38 11.362 20.244L8.098 19.734C5.718 19.3486 3.89333 18.476 2.624 17.116C1.37733 15.7333 0.754 13.92 0.754 11.676C0.754 9.93064 1.13933 8.43464 1.91 7.18797C2.70333 5.91864 3.814 4.94397 5.242 4.26397C6.67 3.5613 8.34733 3.20997 10.274 3.20997C12.2233 3.20997 13.9007 3.54997 15.306 4.22997C16.734 4.90997 17.856 5.88464 18.672 7.15397C19.488 8.42331 19.9413 9.96464 20.032 11.778H15.238C14.9207 10.5086 14.3427 9.5453 13.504 8.88797C12.6653 8.20797 11.5887 7.86797 10.274 7.86797C8.86867 7.86797 7.758 8.19664 6.942 8.85397C6.126 9.51131 5.718 10.418 5.718 11.574C5.718 12.39 5.99 13.07 6.534 13.614C7.10067 14.158 7.88267 14.5093 8.88 14.668L12.11 15.178C14.5127 15.5406 16.3373 16.4133 17.584 17.796C18.8533 19.1786 19.488 20.992 19.488 23.236C19.488 24.936 19.1027 26.4206 18.332 27.69C17.584 28.9366 16.5073 29.9113 15.102 30.614C13.6967 31.294 12.042 31.634 10.138 31.634C8.234 31.634 6.568 31.328 5.14 30.716C3.73467 30.0813 2.624 29.1746 1.808 27.996C1.01467 26.8173 0.561334 25.4006 0.448 23.746H5.378ZM24.0706 23.746L33.8966 17.252C35.03 16.504 35.8573 15.7106 36.3786 14.872C36.9 14.0106 37.1606 13.07 37.1606 12.05C37.1606 10.758 36.798 9.74931 36.0726 9.02397C35.3473 8.27597 34.3273 7.90197 33.0126 7.90197C31.7433 7.90197 30.7006 8.28731 29.8846 9.05797C29.0913 9.82864 28.536 10.962 28.2186 12.458H23.3566C23.47 10.5086 23.9346 8.84264 24.7506 7.45997C25.5893 6.07731 26.7113 5.02331 28.1166 4.29797C29.5446 3.57264 31.1766 3.20997 33.0126 3.20997C34.894 3.20997 36.526 3.57264 37.9086 4.29797C39.314 5.02331 40.3906 6.04331 41.1386 7.35797C41.8866 8.67264 42.2606 10.2366 42.2606 12.05C42.2606 13.9086 41.7733 15.586 40.7986 17.082C39.8466 18.578 38.3506 19.938 36.3106 21.162L29.2726 25.684V26.194H41.6826V31.022H24.0706V23.746ZM55.5473 3.20997C57.4513 3.20997 59.1286 3.61797 60.5793 4.43397C62.0526 5.24997 63.2086 6.3833 64.0473 7.83397C64.8859 9.28464 65.3053 10.962 65.3053 12.866C65.3053 14.2713 65.0446 15.688 64.5233 17.116C64.0019 18.5213 63.1746 20.04 62.0413 21.672L55.6153 31.022H49.9373L56.0573 22.42L55.4113 21.842C55.2753 21.8873 55.1053 21.9213 54.9013 21.944C54.7199 21.9666 54.5159 21.978 54.2893 21.978C52.6346 21.978 51.1613 21.5813 49.8693 20.788C48.5999 19.9946 47.5913 18.918 46.8433 17.558C46.0953 16.1753 45.7213 14.6113 45.7213 12.866C45.7213 10.962 46.1406 9.28464 46.9793 7.83397C47.8179 6.3833 48.9739 5.24997 50.4473 4.43397C51.9433 3.61797 53.6433 3.20997 55.5473 3.20997ZM60.2053 12.866C60.2053 11.8686 60.0126 10.996 59.6273 10.248C59.2419 9.49997 58.6979 8.92197 57.9953 8.51397C57.2926 8.10597 56.4766 7.90197 55.5473 7.90197C54.5953 7.90197 53.7679 8.10597 53.0653 8.51397C52.3626 8.92197 51.8073 9.49997 51.3993 10.248C51.0139 10.9733 50.8213 11.846 50.8213 12.866C50.8213 13.8406 51.0139 14.702 51.3993 15.45C51.8073 16.1753 52.3513 16.7533 53.0313 17.184C53.7339 17.592 54.5499 17.796 55.4793 17.796C56.4313 17.796 57.2586 17.592 57.9613 17.184C58.6639 16.7533 59.2079 16.1753 59.5933 15.45C60.0013 14.702 60.2053 13.8406 60.2053 12.866Z" fill="#062630"/>
</svg>
